<svg id="Layer_1" data-name="Layer 1" xmlns="http://www.w3.org/2000/svg" viewBox="0 0 459 101"><defs><style>.cls-1,.cls-4{fill:#1c75bc;stroke:#1c75bc;}.cls-1,.cls-2,.cls-3,.cls-4{stroke-miterlimit:10;}.cls-1,.cls-2{stroke-width:4px;}.cls-2,.cls-3{fill:#8dc63f;stroke:#8dc63f;}.cls-3,.cls-4{stroke-width:2px;}</style></defs><path class="cls-1" d="M66.32,76.15A49.34,49.34,0,0,1,41.6,82.43q-15.81,0-25.57-10.2t-9.76-27q0-17.14,10.84-28.14t27.48-11q12,0,20.24,3.92V19.6q-9-5.67-21.22-5.67-12.42,0-20.34,8.55T15.33,44.63q0,14,7.37,22t20,8a30.88,30.88,0,0,0,15-3.45V50.5H41.5Q43.26,45.25,45,40H66Q66.16,58.08,66.32,76.15Z"/><path class="cls-2" d="M122,49H85a16.29,16.29,0,0,0,4.23,11.53c4.35,4.54,10.22,4.79,12.46,4.79a25.89,25.89,0,0,0,16.38-5.87v7.93q-6.94,5.06-18.38,5.05-11.19,0-17.57-7.18T75.74,45q0-12.31,7-20.06a22.38,22.38,0,0,1,17.34-7.75q10.35,0,16,6.69c4.37,5.16,5,11.3,5.67,18.6C121.88,44.14,122,46.35,122,49Zm-10.92-9.22q-.06-7.32-3.53-11.39t-9.66-4.06A13.63,13.63,0,0,0,87.75,28.6a19.42,19.42,0,0,0-5.16,11.18Z"/><path class="cls-3" d="M170,93.29a16.39,16.39,0,0,1-7.88,1.64q-13.86,0-13.86-15.45V48.27h-9.06V41.06h9.06V28.18l8.45-2.73V41.06H170v7.21H156.68V78q0,5.31,1.8,7.57t6,2.27A8.9,8.9,0,0,0,170,86.07Z"/><path class="cls-1" d="M243.8,82.19h-8.66V48.51H196.93V82.19h-8.66V8.34h8.66V40.73h38.21V8.34h8.66Z"/><path class="cls-4" d="M268.35,17.06a5.35,5.35,0,0,1-3.86-1.54,5.24,5.24,0,0,1-1.59-3.92,5.4,5.4,0,0,1,5.45-5.51,5.47,5.47,0,0,1,3.94,1.57,5.24,5.24,0,0,1,1.63,3.94,5.22,5.22,0,0,1-1.63,3.87A5.41,5.41,0,0,1,268.35,17.06Zm4.12,66.13H264V30.45h8.44Z"/><path class="cls-4" d="M317.08,39a10.37,10.37,0,0,0-6.39-1.7q-5.4,0-9,5.1T298,56.31V83.19h-8.45V30.45H298V41.32h.21a18.43,18.43,0,0,1,5.51-8.68A12.58,12.58,0,0,1,312,29.53a13.82,13.82,0,0,1,5.05.72Z"/><path class="cls-4" d="M368.63,58.94H331.4q.19,8.81,4.73,13.59t12.47,4.79A25.89,25.89,0,0,0,365,71.45v7.93q-7,5.06-18.39,5.05-11.18,0-17.56-7.18T322.64,57q0-12.31,7-20.06A22.36,22.36,0,0,1,347,29.22q10.35,0,16,6.69t5.66,18.6ZM360,51.78q0-7.32-3.53-11.39c-2.32-2.71-5.53-4.06-9.66-4.06a13.63,13.63,0,0,0-10.14,4.27,19.41,19.41,0,0,0-5.15,11.18Z"/><path class="cls-4" d="M426.42,83.19H418v-9h-.2q-5.88,10.2-18.13,10.2-9.94,0-15.89-7.08T377.8,58.06q0-13.08,6.59-21T402,29.22q10.86,0,15.81,8.55h.2V5.11h8.45ZM418,59.35V51.57a15,15,0,0,0-4.22-10.81A14.14,14.14,0,0,0,403,36.33,14.59,14.59,0,0,0,390.88,42q-4.42,5.67-4.43,15.66,0,9.12,4.25,14.39a13.9,13.9,0,0,0,11.41,5.28,14.44,14.44,0,0,0,11.46-5.1A19,19,0,0,0,418,59.35Z"/><path class="cls-2" d="M254,49H115V40l134.55,1L254,41l5,4Z"/><circle class="cls-3" cx="444.5" cy="77.5" r="6.5"/></svg>